<?xml version="1.0"?>
<svg width="1067" height="783" xmlns:svg="http://www.w3.org/2000/svg" xmlns="http://www.w3.org/2000/svg">
<g >
<title >leg1</title>
<line x1="394" y1="308" x2="394" y2="358" stroke="blue" stroke-width="3" />
</g>
<g >
<title >leg2</title>
<line x1="394" y1="358" x2="399" y2="370" stroke="blue" stroke-width="3" />
</g>
<g >
<title >leg3</title>
<line x1="399" y1="370" x2="395" y2="386" stroke="blue" stroke-width="3" />
</g>
<g >
<title >leg4</title>
<line x1="395" y1="386" x2="400" y2="401" stroke="blue" stroke-width="3" />
</g>
<g >
<title >leg5</title>
<line x1="400" y1="401" x2="408" y2="400" stroke="blue" stroke-width="3" />
</g>
<g >
<title >leg6</title>
<line x1="408" y1="400" x2="411" y2="398" stroke="blue" stroke-width="3" />
</g>
<g >
<title >leg7</title>
<line x1="411" y1="398" x2="414" y2="397" stroke="blue" stroke-width="3" />
</g>
<g >
<title >leg8</title>
<line x1="414" y1="397" x2="416" y2="404" stroke="blue" stroke-width="3" />
</g>
<g >
<title >leg9</title>
<line x1="416" y1="404" x2="420" y2="408" stroke="blue" stroke-width="3" />
</g>
<g >
<title >leg10</title>
<line x1="420" y1="408" x2="417" y2="419" stroke="blue" stroke-width="3" />
</g>
<g >
<title >leg11</title>
<line x1="417" y1="419" x2="428" y2="436" stroke="blue" stroke-width="3" />
</g>
<g >
<title >leg12</title>
<line x1="428" y1="436" x2="427" y2="449" stroke="blue" stroke-width="3" />
</g>
<g >
<title >leg13</title>
<line x1="427" y1="449" x2="426" y2="457" stroke="blue" stroke-width="3" />
</g>
<g >
<title >leg14</title>
<line x1="426" y1="457" x2="428" y2="459" stroke="blue" stroke-width="3" />
</g>
<g >
<title >leg15</title>
<line x1="428" y1="459" x2="438" y2="351" stroke="blue" stroke-width="3" />
</g>
<g >
<title >leg16</title>
<line x1="438" y1="351" x2="442" y2="331" stroke="blue" stroke-width="3" />
</g>
<g >
<title >leg17</title>
<line x1="442" y1="331" x2="446" y2="329" stroke="blue" stroke-width="3" />
</g>
<g >
<title >leg18</title>
<line x1="446" y1="329" x2="447" y2="332" stroke="blue" stroke-width="3" />
</g>
<g >
<title >leg19</title>
<line x1="447" y1="332" x2="447" y2="321" stroke="blue" stroke-width="3" />
</g>
<g >
<title >leg20</title>
<line x1="447" y1="321" x2="488" y2="279" stroke="blue" stroke-width="3" />
</g>
<g >
<title >leg21</title>
<line x1="488" y1="279" x2="487" y2="277" stroke="blue" stroke-width="3" />
</g>
<g >
<title >leg22</title>
<line x1="487" y1="277" x2="509" y2="288" stroke="blue" stroke-width="3" />
</g>
<g >
<title >leg23</title>
<line x1="509" y1="288" x2="512" y2="287" stroke="blue" stroke-width="3" />
</g>
<g >
<title >leg24</title>
<line x1="512" y1="287" x2="516" y2="169" stroke="blue" stroke-width="3" />
</g>
<g >
<title >leg25</title>
<line x1="516" y1="169" x2="597" y2="419" stroke="blue" stroke-width="3" />
</g>
<g >
<title >leg26</title>
<line x1="597" y1="419" x2="525" y2="573" stroke="blue" stroke-width="3" />
</g>
<g >
<title >leg27</title>
<line x1="525" y1="573" x2="522" y2="575" stroke="blue" stroke-width="3" />
</g>
<g >
<title >leg28</title>
<line x1="522" y1="575" x2="521" y2="574" stroke="blue" stroke-width="3" />
</g>
<g >
<title >leg29</title>
<line x1="521" y1="574" x2="518" y2="572" stroke="blue" stroke-width="3" />
</g>
<g >
<title >leg30</title>
<line x1="518" y1="572" x2="518" y2="572" stroke="blue" stroke-width="3" />
</g>
<g >
<title >leg31</title>
<line x1="518" y1="572" x2="534" y2="642" stroke="blue" stroke-width="3" />
</g>
<g >
<title >leg32</title>
<line x1="534" y1="642" x2="535" y2="643" stroke="blue" stroke-width="3" />
</g>
<g >
<title >leg33</title>
<line x1="535" y1="643" x2="533" y2="645" stroke="blue" stroke-width="3" />
</g>
<g >
<title >leg34</title>
<line x1="533" y1="645" x2="541" y2="642" stroke="blue" stroke-width="3" />
</g>
<g >
<title >leg35</title>
<line x1="541" y1="642" x2="577" y2="724" stroke="blue" stroke-width="3" />
</g>
<g >
<title >leg36</title>
<line x1="577" y1="724" x2="330" y2="571" stroke="blue" stroke-width="3" />
</g>
<g >
<title >leg37</title>
<line x1="330" y1="571" x2="260" y2="579" stroke="blue" stroke-width="3" />
</g>
<g >
<title >leg38</title>
<line x1="260" y1="579" x2="260" y2="582" stroke="blue" stroke-width="3" />
</g>
<g >
<title >leg39</title>
<line x1="260" y1="582" x2="249" y2="584" stroke="blue" stroke-width="3" />
</g>
<g >
<title >leg40</title>
<line x1="249" y1="584" x2="248" y2="558" stroke="blue" stroke-width="3" />
</g>
<g >
<title >leg41</title>
<line x1="248" y1="558" x2="255" y2="556" stroke="blue" stroke-width="3" />
</g>
<g >
<title >leg42</title>
<line x1="255" y1="556" x2="208" y2="568" stroke="blue" stroke-width="3" />
</g>
<g >
<title >leg43</title>
<line x1="208" y1="568" x2="180" y2="593" stroke="blue" stroke-width="3" />
</g>
<g >
<title >leg44</title>
<line x1="180" y1="593" x2="180" y2="597" stroke="blue" stroke-width="3" />
</g>
<g >
<title >leg45</title>
<line x1="180" y1="597" x2="232" y2="635" stroke="blue" stroke-width="3" />
</g>
<g >
<title >leg46</title>
<line x1="232" y1="635" x2="236" y2="634" stroke="blue" stroke-width="3" />
</g>
<g >
<title >leg47</title>
<line x1="236" y1="634" x2="236" y2="635" stroke="blue" stroke-width="3" />
</g>
<g >
<title >leg48</title>
<line x1="236" y1="635" x2="340" y2="389" stroke="blue" stroke-width="3" />
</g>
<g >
<title >leg49</title>
<line x1="340" y1="389" x2="327" y2="378" stroke="blue" stroke-width="3" />
</g>
<g >
<title >leg50</title>
<line x1="327" y1="378" x2="322" y2="378" stroke="blue" stroke-width="3" />
</g>
<g >
<title >leg51</title>
<line x1="322" y1="378" x2="311" y2="370" stroke="blue" stroke-width="3" />
</g>
<g >
<title >leg52</title>
<line x1="311" y1="370" x2="308" y2="364" stroke="blue" stroke-width="3" />
</g>
<g >
<title >leg53</title>
<line x1="308" y1="364" x2="394" y2="308" stroke="blue" stroke-width="3" />
</g>
<text x="570" y="29" font-size="24" id="maptitle" font-family="Sans-serif" text-anchor="middle">Colorado - Colorado14ers</text>
<text x="570" y="768" font-size="24" id="mapfooter" font-family="Sans-serif" text-anchor="middle">824 miles</text>
</svg>
