<?xml version="1.0"?>
<svg width="1067" height="783" xmlns:svg="http://www.w3.org/2000/svg" xmlns="http://www.w3.org/2000/svg">
<g >
<title >leg1</title>
<line x1="412" y1="356" x2="331" y2="352" stroke="blue" stroke-width="3" />
</g>
<g >
<title >leg2</title>
<line x1="331" y1="352" x2="364" y2="279" stroke="blue" stroke-width="3" />
</g>
<g >
<title >leg3</title>
<line x1="364" y1="279" x2="442" y2="281" stroke="blue" stroke-width="3" />
</g>
<g >
<title >leg4</title>
<line x1="442" y1="281" x2="509" y2="269" stroke="blue" stroke-width="3" />
</g>
<g >
<title >leg5</title>
<line x1="509" y1="269" x2="529" y2="239" stroke="blue" stroke-width="3" />
</g>
<g >
<title >leg6</title>
<line x1="529" y1="239" x2="547" y2="198" stroke="blue" stroke-width="3" />
</g>
<g >
<title >leg7</title>
<line x1="547" y1="198" x2="597" y2="223" stroke="blue" stroke-width="3" />
</g>
<g >
<title >leg8</title>
<line x1="597" y1="223" x2="621" y2="256" stroke="blue" stroke-width="3" />
</g>
<g >
<title >leg9</title>
<line x1="621" y1="256" x2="568" y2="286" stroke="blue" stroke-width="3" />
</g>
<g >
<title >leg10</title>
<line x1="568" y1="286" x2="614" y2="333" stroke="blue" stroke-width="3" />
</g>
<g >
<title >leg11</title>
<line x1="614" y1="333" x2="578" y2="414" stroke="blue" stroke-width="3" />
</g>
<g >
<title >leg12</title>
<line x1="578" y1="414" x2="544" y2="487" stroke="blue" stroke-width="3" />
</g>
<g >
<title >leg13</title>
<line x1="544" y1="487" x2="551" y2="551" stroke="blue" stroke-width="3" />
</g>
<g >
<title >leg14</title>
<line x1="551" y1="551" x2="609" y2="623" stroke="blue" stroke-width="3" />
</g>
<g >
<title >leg15</title>
<line x1="609" y1="623" x2="543" y2="696" stroke="blue" stroke-width="3" />
</g>
<g >
<title >leg16</title>
<line x1="543" y1="696" x2="492" y2="645" stroke="blue" stroke-width="3" />
</g>
<g >
<title >leg17</title>
<line x1="492" y1="645" x2="436" y2="708" stroke="blue" stroke-width="3" />
</g>
<g >
<title >leg18</title>
<line x1="436" y1="708" x2="398" y2="659" stroke="blue" stroke-width="3" />
</g>
<g >
<title >leg19</title>
<line x1="398" y1="659" x2="330" y2="630" stroke="blue" stroke-width="3" />
</g>
<g >
<title >leg20</title>
<line x1="330" y1="630" x2="266" y2="602" stroke="blue" stroke-width="3" />
</g>
<g >
<title >leg21</title>
<line x1="266" y1="602" x2="225" y2="607" stroke="blue" stroke-width="3" />
</g>
<g >
<title >leg22</title>
<line x1="225" y1="607" x2="211" y2="542" stroke="blue" stroke-width="3" />
</g>
<g >
<title >leg23</title>
<line x1="211" y1="542" x2="141" y2="496" stroke="blue" stroke-width="3" />
</g>
<g >
<title >leg24</title>
<line x1="141" y1="496" x2="117" y2="567" stroke="blue" stroke-width="3" />
</g>
<g >
<title >leg25</title>
<line x1="117" y1="567" x2="103" y2="613" stroke="blue" stroke-width="3" />
</g>
<g >
<title >leg26</title>
<line x1="103" y1="613" x2="93" y2="685" stroke="blue" stroke-width="3" />
</g>
<g >
<title >leg27</title>
<line x1="93" y1="685" x2="201" y2="694" stroke="blue" stroke-width="3" />
</g>
<g >
<title >leg28</title>
<line x1="201" y1="694" x2="313" y2="710" stroke="blue" stroke-width="3" />
</g>
<g >
<title >leg29</title>
<line x1="313" y1="710" x2="426" y2="563" stroke="blue" stroke-width="3" />
</g>
<g >
<title >leg30</title>
<line x1="426" y1="563" x2="417" y2="437" stroke="blue" stroke-width="3" />
</g>
<g >
<title >leg31</title>
<line x1="417" y1="437" x2="309" y2="450" stroke="blue" stroke-width="3" />
</g>
<g >
<title >leg32</title>
<line x1="309" y1="450" x2="198" y2="416" stroke="blue" stroke-width="3" />
</g>
<g >
<title >leg33</title>
<line x1="198" y1="416" x2="113" y2="387" stroke="blue" stroke-width="3" />
</g>
<g >
<title >leg34</title>
<line x1="113" y1="387" x2="191" y2="285" stroke="blue" stroke-width="3" />
</g>
<g >
<title >leg35</title>
<line x1="191" y1="285" x2="150" y2="219" stroke="blue" stroke-width="3" />
</g>
<g >
<title >leg36</title>
<line x1="150" y1="219" x2="150" y2="113" stroke="blue" stroke-width="3" />
</g>
<g >
<title >leg37</title>
<line x1="150" y1="113" x2="322" y2="129" stroke="blue" stroke-width="3" />
</g>
<g >
<title >leg38</title>
<line x1="322" y1="129" x2="415" y2="97" stroke="blue" stroke-width="3" />
</g>
<g >
<title >leg39</title>
<line x1="415" y1="97" x2="448" y2="192" stroke="blue" stroke-width="3" />
</g>
<g >
<title >leg40</title>
<line x1="448" y1="192" x2="536" y2="97" stroke="blue" stroke-width="3" />
</g>
<g >
<title >leg41</title>
<line x1="536" y1="97" x2="692" y2="114" stroke="blue" stroke-width="3" />
</g>
<g >
<title >leg42</title>
<line x1="692" y1="114" x2="772" y2="168" stroke="blue" stroke-width="3" />
</g>
<g >
<title >leg43</title>
<line x1="772" y1="168" x2="858" y2="219" stroke="blue" stroke-width="3" />
</g>
<g >
<title >leg44</title>
<line x1="858" y1="219" x2="970" y2="214" stroke="blue" stroke-width="3" />
</g>
<g >
<title >leg45</title>
<line x1="970" y1="214" x2="979" y2="109" stroke="blue" stroke-width="3" />
</g>
<g >
<title >leg46</title>
<line x1="979" y1="109" x2="978" y2="60" stroke="blue" stroke-width="3" />
</g>
<g >
<title >leg47</title>
<line x1="978" y1="60" x2="875" y2="84" stroke="blue" stroke-width="3" />
</g>
<g >
<title >leg48</title>
<line x1="875" y1="84" x2="699" y2="237" stroke="blue" stroke-width="3" />
</g>
<g >
<title >leg49</title>
<line x1="699" y1="237" x2="699" y2="278" stroke="blue" stroke-width="3" />
</g>
<g >
<title >leg50</title>
<line x1="699" y1="278" x2="728" y2="336" stroke="blue" stroke-width="3" />
</g>
<g >
<title >leg51</title>
<line x1="728" y1="336" x2="815" y2="393" stroke="blue" stroke-width="3" />
</g>
<g >
<title >leg52</title>
<line x1="815" y1="393" x2="775" y2="512" stroke="blue" stroke-width="3" />
</g>
<g >
<title >leg53</title>
<line x1="775" y1="512" x2="785" y2="590" stroke="blue" stroke-width="3" />
</g>
<g >
<title >leg54</title>
<line x1="785" y1="590" x2="876" y2="581" stroke="blue" stroke-width="3" />
</g>
<g >
<title >leg55</title>
<line x1="876" y1="581" x2="921" y2="499" stroke="blue" stroke-width="3" />
</g>
<g >
<title >leg56</title>
<line x1="921" y1="499" x2="944" y2="419" stroke="blue" stroke-width="3" />
</g>
<g >
<title >leg57</title>
<line x1="944" y1="419" x2="944" y2="336" stroke="blue" stroke-width="3" />
</g>
<g >
<title >leg58</title>
<line x1="944" y1="336" x2="974" y2="575" stroke="blue" stroke-width="3" />
</g>
<g >
<title >leg59</title>
<line x1="974" y1="575" x2="953" y2="692" stroke="blue" stroke-width="3" />
</g>
<g >
<title >leg60</title>
<line x1="953" y1="692" x2="740" y2="689" stroke="blue" stroke-width="3" />
</g>
<g >
<title >leg61</title>
<line x1="740" y1="689" x2="676" y2="538" stroke="blue" stroke-width="3" />
</g>
<g >
<title >leg62</title>
<line x1="676" y1="538" x2="670" y2="421" stroke="blue" stroke-width="3" />
</g>
<g >
<title >leg63</title>
<line x1="670" y1="421" x2="502" y2="370" stroke="blue" stroke-width="3" />
</g>
<g >
<title >leg64</title>
<line x1="502" y1="370" x2="412" y2="356" stroke="blue" stroke-width="3" />
</g>
<text x="570" y="29" font-size="24" id="maptitle" font-family="Sans-serif" text-anchor="middle">Colorado - ColoradoCountySeats</text>
<text x="570" y="768" font-size="24" id="mapfooter" font-family="Sans-serif" text-anchor="middle">2417 miles</text>
</svg>
